<svg width="24" height="24" viewBox="0 0 24 24" fill="none" xmlns="http://www.w3.org/2000/svg">
<path d="M13.4794 2.08854C15.0486 0.0101325 17.2303 0 17.2303 0C17.2303 0 17.5548 1.95405 15.9958 3.83643C14.3312 5.84639 12.4392 5.5175 12.4392 5.5175C12.4392 5.5175 12.0839 3.93673 13.4794 2.08854ZM12.6388 6.88631C13.4461 6.88631 14.9444 5.77117 16.8947 5.77117C20.2517 5.77117 21.5724 8.17157 21.5724 8.17157C21.5724 8.17157 18.9894 9.49863 18.9894 12.7187C18.9894 16.3511 22.2071 17.603 22.2071 17.603C22.2071 17.603 19.9578 23.9648 16.9197 23.9648C15.5242 23.9648 14.4394 23.0198 12.9691 23.0198C11.4708 23.0198 9.98393 24 9.01552 24C6.24123 24.0001 2.73633 17.9653 2.73633 13.1143C2.73633 8.34169 5.703 5.83804 8.48561 5.83804C10.2946 5.83804 11.6983 6.88631 12.6388 6.88631Z" fill="white"/>
</svg>
